<svg xmlns="http://www.w3.org/2000/svg" width="35" height="41" viewBox="0 0 35 41" fill="none">
    <path d="M28.7967 21.6378C28.7788 18.3604 30.2612 15.8867 33.2618 14.065C31.5829 11.6627 29.0467 10.3411 25.6979 10.0821C22.5277 9.83206 19.0628 11.9307 17.7947 11.9307C16.4552 11.9307 13.3832 10.1714 10.972 10.1714C5.98897 10.2518 0.693359 14.1453 0.693359 22.0664C0.693359 24.4061 1.12201 26.8232 1.97931 29.3177C3.12237 32.5951 7.24812 40.6323 11.5525 40.4983C13.8029 40.4448 15.3925 38.8998 18.3216 38.8998C21.1614 38.8998 22.6349 40.4983 25.1442 40.4983C29.4843 40.4358 33.2171 33.1309 34.3066 29.8446C28.4841 27.1031 28.7967 21.8074 28.7967 21.6378ZM23.7422 6.97439C26.1801 4.08101 25.9569 1.4466 25.8854 0.5C23.7333 0.625023 21.2417 1.96455 19.8218 3.61664C18.2591 5.38482 17.3392 7.57272 17.5357 10.0374C19.8665 10.2161 21.9919 9.01941 23.7422 6.97439Z" fill="white"/>
</svg>
