<svg xmlns="http://www.w3.org/2000/svg" width="41" height="41" viewBox="0 0 41 41" fill="none">
    <path d="M36.8432 17.2358H35.5007V17.1666H20.5007V23.8333H29.9198C28.5457 27.7141 24.8532 30.5 20.5007 30.5C14.9782 30.5 10.5007 26.0225 10.5007 20.5C10.5007 14.9775 14.9782 10.5 20.5007 10.5C23.0498 10.5 25.369 11.4616 27.1348 13.0325L31.849 8.31831C28.8723 5.54415 24.8906 3.83331 20.5007 3.83331C11.2965 3.83331 3.83398 11.2958 3.83398 20.5C3.83398 29.7041 11.2965 37.1666 20.5007 37.1666C29.7048 37.1666 37.1673 29.7041 37.1673 20.5C37.1673 19.3825 37.0523 18.2916 36.8432 17.2358Z" fill="#FFC107"/>
    <path d="M5.75586 12.7425L11.2317 16.7583C12.7134 13.09 16.3017 10.5 20.5009 10.5C23.05 10.5 25.3692 11.4616 27.135 13.0325L31.8492 8.31831C28.8725 5.54415 24.8909 3.83331 20.5009 3.83331C14.0992 3.83331 8.54753 7.44748 5.75586 12.7425Z" fill="#FF3D00"/>
    <path d="M20.4996 37.1667C24.8046 37.1667 28.7163 35.5192 31.6738 32.84L26.5154 28.475C24.8421 29.7425 22.7621 30.5 20.4996 30.5C16.1646 30.5 12.4838 27.7359 11.0971 23.8784L5.66211 28.0659C8.42044 33.4634 14.0221 37.1667 20.4996 37.1667Z" fill="#4CAF50"/>
    <path d="M36.8425 17.2359H35.5V17.1667H20.5V23.8334H29.9192C29.2592 25.6975 28.06 27.305 26.5133 28.4759L26.5158 28.4742L31.6742 32.8392C31.3092 33.1709 37.1667 28.8334 37.1667 20.5C37.1667 19.3825 37.0517 18.2917 36.8425 17.2359Z" fill="#1976D2"/>
</svg>
