<svg xmlns="http://www.w3.org/2000/svg" width="41" height="41" viewBox="0 0 41 41" fill="none">
    <path d="M20.4991 39.5909C23.0062 39.5909 25.4887 39.0971 27.8049 38.1377C30.1211 37.1783 32.2257 35.7721 33.9984 33.9993C35.7712 32.2265 37.1774 30.122 38.1368 27.8058C39.0962 25.4896 39.59 23.007 39.59 20.5C39.59 17.9929 39.0962 15.5104 38.1368 13.1942C37.1774 10.878 35.7712 8.77344 33.9984 7.00068C32.2257 5.22793 30.1211 3.8217 27.8049 2.8623C25.4887 1.90289 23.0062 1.40909 20.4991 1.40909C15.4359 1.40909 10.58 3.42045 6.9998 7.00069C3.41956 10.5809 1.4082 15.4368 1.4082 20.5C1.4082 25.5632 3.41956 30.4191 6.9998 33.9993C10.58 37.5795 15.4359 39.5909 20.4991 39.5909Z" fill="#FC3F1D"/>
    <path d="M23.5006 32.4364H27.6552V8.55453H21.6006C15.5097 8.55453 12.3097 11.6818 12.3097 16.2818C12.3097 19.9364 14.0643 22.1273 17.1915 24.3545L11.7461 32.4273H16.2643L22.3188 23.3909L20.2097 21.9909C17.6643 20.2636 16.4188 18.9364 16.4188 16.0454C16.4188 13.5091 18.2097 11.7909 21.6188 11.7909H23.4825V32.4273H23.4916L23.5006 32.4364Z" fill="#2A2A2A"/>
</svg>
